<?xml version="1.0" encoding="utf-8"?> <!DOCTYPE svg PUBLIC "-//W3C//DTD SVG 1.1//EN" "http://www.w3.org/Graphics/SVG/1.1/DTD/svg11.dtd"> <svg version="1.1" id="Layer_1" xmlns="http://www.w3.org/2000/svg" xmlns:xlink="http://www.w3.org/1999/xlink" x="0px" y="0px" width="56.3px" height="59.1px" viewBox="0 0 56.3 59.1" style="enable-background:new 0 0 56.3 59.1;" xml:space="preserve"> <style type="text/css"> .st0{fill:#474747;} </style> <path class="st0" d="M52.2,9.8C51.5,9.2,49,8.5,47.4,8c-0.4-1.4-0.7-2.4-0.9-2.9c-1.4-3.4-1.8-3.9-5.3-4.5C38,0,33.2-0.1,28.3,0 c-4.9-0.1-9.7,0-12.9,0.6c-3.5,0.7-3.9,1.1-5.3,4.5C9.9,5.6,9.6,6.6,9.3,8C7.7,8.4,5,9.2,4.2,9.8c-1,0.8-5.2,8-4,9.9 c1.2,2,2.6,2.9,3.8,2c1.1-1,2.3-9.8,2.3-9.8c0.7,0,1.4,0,1.9,0.1c-1.6,7.6-3.1,20.5-0.6,35.9c0.3,1.6,1.3,2.7,3.2,3.5 c0,0.1,0,0.3,0,0.4v3.5c0,2,1.7,3.7,3.7,3.7c2.1,0,3.7-1.7,3.7-3.7v-3c2.6,0,6.2,0,10.1,0c3.6,0,7.1,0,9.7,0v3c0,2,1.7,3.7,3.7,3.7 c2.1,0,3.7-1.7,3.7-3.7v-3.5c0-0.1,0-0.2,0-0.3c2-0.7,3.2-1.9,3.5-3.6c2.4-15.4,0.9-28.4-0.7-35.9c0.5,0,1.1,0,1.7-0.1 c0,0,1.2,8.8,2.3,9.8c1.2,0.9,2.6-0.1,3.8-2C57.4,17.8,53.2,10.6,52.2,9.8 M22.9,2.7h11.3c1.2,0,1.1,0.7,1.1,1.5s0.1,1.5-1.1,1.5 H22.9c-1.2,0-1.2-0.7-1.2-1.5C21.8,3.4,21.7,2.7,22.9,2.7 M19.9,47.3c-0.8,0.8-6.1-0.4-7.6-0.7c-1.6-0.3-1.5-0.1-2-1.3 s-0.3-4.5,0-4.6c0.3-0.2,0.3-0.2,1.8,0.2C16.1,42.3,20.6,45.3,19.9,47.3 M46.4,45.4c-0.5,1.2-0.4,1-2,1.3s-6.8,1.4-7.6,0.7 c-0.8-2,3.8-5,7.9-6.3c1.5-0.5,1.4-0.4,1.8-0.2C46.8,40.9,47,44.2,46.4,45.4 M47.3,30.9c-0.7,2.2-1.8,3.7-3.9,3.9 C41.3,35,15.9,35,13.2,34.7c-2.7-0.4-3.2-1.7-3.9-3.9c-0.7-2.2,1.2-15.3,2-17.7c0.7-2.4,1-3.2,3.9-3.9s24.1-0.5,26.2,0.1 c2.1,0.6,3.2,1.5,3.9,3.9C46.1,15.5,48,28.6,47.3,30.9"/> </svg>
