<?xml version="1.0" encoding="utf-8"?> <!DOCTYPE svg PUBLIC "-//W3C//DTD SVG 1.1//EN" "http://www.w3.org/Graphics/SVG/1.1/DTD/svg11.dtd"> <svg version="1.1" id="Layer_1" xmlns="http://www.w3.org/2000/svg" xmlns:xlink="http://www.w3.org/1999/xlink" x="0px" y="0px" width="196.5px" height="59.1px" viewBox="0 0 196.5 59.1" style="enable-background:new 0 0 196.5 59.1;" xml:space="preserve"> <style type="text/css"> .st0{fill:#474747;} .st1{fill:#F1D675;} </style> <path class="st0" d="M77.4,50.9c-1.3,0.6-4,1.3-7.4,1.3c-7.9,0-13.8-5-13.8-14.2c0-8.8,5.9-14.7,14.6-14.7c3.5,0,5.7,0.7,6.7,1.2 l-0.9,3c-1.4-0.7-3.3-1.2-5.7-1.2c-6.6,0-10.9,4.2-10.9,11.6c0,6.9,4,11.3,10.8,11.3c2.2,0,4.4-0.5,5.9-1.2L77.4,50.9z"/> <rect x="81.8" y="22.3" class="st0" width="3.6" height="29.5"/> <rect x="91.6" y="31.7" class="st0" width="3.6" height="20.1"/> <path class="st0" d="M115.6,51.1c-1,0.5-3.1,1.2-5.8,1.2c-6.1,0-10-4.1-10-10.3s4.2-10.7,10.8-10.7c2.1,0,4.1,0.5,5.1,1l-0.8,2.8 c-0.9-0.5-2.2-1-4.2-1c-4.6,0-7.1,3.5-7.1,7.6c0,4.7,3,7.5,7,7.5c2,0,3.4-0.5,4.4-1L115.6,51.1z"/> <path class="st0" d="M123.5,40.9L123.5,40.9c0.6-0.7,1.2-1.6,1.8-2.3l5.9-6.9h4.4l-7.8,8.2l8.9,11.8h-4.4l-6.9-9.7l-1.9,2.1v7.6 h-3.6V22.3h3.6L123.5,40.9L123.5,40.9z"/> <path class="st1" d="M139.4,24.2c1.6-0.3,4.2-0.6,6.7-0.6c3.6,0,5.9,0.6,7.6,2c1.5,1.1,2.4,2.7,2.4,4.9c0,2.7-1.8,5.1-4.7,6.2v0.1 c2.7,0.7,5.8,2.8,5.8,7.1c0,2.4-0.9,4.2-2.4,5.6c-1.9,1.8-5.1,2.6-9.6,2.6c-2.5,0-4.4-0.2-5.7-0.3V24.2H139.4z M143.1,35.7h3.3 c3.8,0,6.1-2,6.1-4.7c0-3.3-2.5-4.6-6.2-4.6c-1.7,0-2.6,0.1-3.2,0.2L143.1,35.7L143.1,35.7z M143.1,49.1c0.7,0.1,1.7,0.2,3,0.2 c3.7,0,7.2-1.4,7.2-5.4c0-3.9-3.3-5.4-7.3-5.4h-3v10.6H143.1z"/> <path class="st1" d="M175.7,51.8l-0.2-3.3h-0.1c-0.9,1.5-3,3.7-6.7,3.7c-3.9,0-6.9-2.4-6.9-8.8V31.7h3.7v11.1c0,3.9,1.2,6.4,4.4,6.4 c2.7,0,4.4-1.8,4.9-3.3c0.2-0.6,0.3-1.3,0.3-1.9V31.7h3.6v14.6c0,2.1,0.1,3.9,0.2,5.5C178.9,51.8,175.7,51.8,175.7,51.8z"/> <path class="st1" d="M184.3,48.1c1.1,0.7,3,1.5,4.8,1.5c2.7,0,3.9-1.3,3.9-3s-1-2.7-3.7-3.7c-3.6-1.3-5.3-3.3-5.3-5.7 c0-3.2,2.6-5.9,6.9-5.9c2,0,3.8,0.5,4.9,1.2l-0.9,2.7c-0.8-0.5-2.2-1.2-4.2-1.2c-2.1,0-3.3,1.3-3.3,2.8c0,1.7,1.2,2.4,3.8,3.5 c3.5,1.3,5.3,3,5.3,6c0,3.5-2.7,6.1-7.5,6.1c-2.2,0-4.2-0.6-5.7-1.4L184.3,48.1z"/> <path class="st1" d="M96.2,26c0,1.5-1.2,2.6-2.6,2.6c-1.5,0-2.6-1.2-2.6-2.6c0-1.5,1.2-2.6,2.6-2.6C95.1,23.4,96.2,24.6,96.2,26"/> <path class="st0" d="M51.9,9.8c-0.7-0.5-3.2-1.3-4.8-1.8c-0.4-1.4-0.7-2.4-0.9-2.9c-1.4-3.5-1.8-3.9-5.3-4.5C37.8,0,33-0.1,28.2,0 c-4.8-0.1-9.6,0-12.8,0.6c-3.5,0.7-3.9,1.1-5.3,4.5C9.9,5.6,9.6,6.6,9.2,8c-1.5,0.4-4.3,1.3-5,1.8c-1,0.8-5.2,8-4,9.9 c1.2,2,2.6,2.9,3.8,2c1.1-1,2.3-9.8,2.3-9.8C7,11.9,7.7,12,8.2,12c-1.6,7.6-3.1,20.5-0.6,36c0.3,1.6,1.3,2.7,3.2,3.5 c0,0.1,0,0.3,0,0.4v3.5c0,2,1.7,3.7,3.7,3.7s3.7-1.7,3.7-3.7v-3c2.6,0,6.2,0,10,0c3.6,0,7.1,0,9.6,0v3c0,2,1.7,3.7,3.7,3.7 c2.1,0,3.7-1.7,3.7-3.7v-3.5c0-0.1,0-0.2,0-0.3c2-0.7,3.2-1.9,3.5-3.6c2.4-15.4,0.9-28.4-0.6-36c0.5,0,1.1,0,1.7-0.1 c0,0,1.2,8.8,2.3,9.8c1.2,0.9,2.6-0.1,3.8-2C57.2,17.8,53,10.6,51.9,9.8 M22.8,2.7h11.3c1.2,0,1.1,0.7,1.1,1.5s0.1,1.5-1.1,1.5H22.8 c-1.2,0-1.2-0.7-1.2-1.5C21.7,3.4,21.6,2.7,22.8,2.7 M19.8,47.4c-0.8,0.8-6-0.4-7.6-0.7s-1.5-0.1-2-1.3s-0.3-4.5,0-4.6 c0.3-0.2,0.3-0.2,1.8,0.2C16,42.3,20.5,45.4,19.8,47.4 M46.2,45.4c-0.5,1.2-0.4,1-2,1.3s-6.8,1.4-7.6,0.7c-0.8-2,3.8-5,7.8-6.3 c1.5-0.5,1.4-0.4,1.8-0.2C46.6,41,46.8,44.2,46.2,45.4 M47.1,30.9c-0.7,2.2-1.8,3.7-3.9,3.9c-2.1,0.2-27.3,0.3-30-0.1 c-2.7-0.4-3.2-1.7-3.9-3.9s1.2-15.3,2-17.7c0.7-2.4,1-3.2,3.9-3.9s24-0.5,26.1,0.1s3.2,1.5,3.9,3.9C45.8,15.6,47.8,28.7,47.1,30.9"/> </svg>
