<?xml version="1.0" encoding="utf-8"?> <!DOCTYPE svg PUBLIC "-//W3C//DTD SVG 1.1//EN" "http://www.w3.org/Graphics/SVG/1.1/DTD/svg11.dtd"> <svg version="1.1" id="Layer_1" xmlns="http://www.w3.org/2000/svg" xmlns:xlink="http://www.w3.org/1999/xlink" x="0px" y="0px" width="196.5px" height="59.1px" viewBox="0 0 196.5 59.1" style="enable-background:new 0 0 196.5 59.1;" xml:space="preserve"> <style type="text/css"> .st0{fill:#474747;} .st1{fill:#F1D675;} </style> <path class="st0" d="M54.3,22.3h3.7v13.9h0.1c0.8-1.1,1.5-2.1,2.3-3.1l8.8-10.8h4.6L63.5,34.6l11.3,16.6h-4.4L60.8,37l-2.7,3.2v11 h-3.7V22.3z"/> <rect x="77.9" y="22.1" class="st0" width="3.8" height="29.1"/> <path class="st0" d="M92.2,24.7c0,1.3-0.9,2.3-2.4,2.3c-1.3,0-2.3-1-2.3-2.3c0-1.3,1-2.4,2.4-2.4C91.3,22.3,92.2,23.3,92.2,24.7 M88,30.5h3.8v20.7H88V30.5z"/> <path class="st0" d="M112.8,50.5c-1,0.5-3.2,1.2-6,1.2c-6.3,0-10.3-4.2-10.3-10.6c0-6.4,4.4-11,11.1-11c2.2,0,4.2,0.6,5.2,1.1 L112,34c-0.9-0.5-2.3-1-4.4-1c-4.8,0-7.3,3.5-7.3,7.8c0,4.8,3.1,7.8,7.2,7.8c2.1,0,3.6-0.6,4.6-1L112.8,50.5z"/> <path class="st0" d="M121,40L121,40c0.6-0.7,1.3-1.6,1.9-2.4l6.1-7.2h4.5l-8,8.5l9.1,12.2H130l-7.2-9.9l-1.9,2.1v7.8h-3.7V22.1h3.7 V40z"/> <path class="st1" d="M137.5,22.7c1.6-0.3,4.2-0.6,6.8-0.6c3.7,0,6.1,0.6,7.9,2.1c1.5,1.1,2.4,2.8,2.4,5.1c0,2.8-1.8,5.2-4.9,6.3v0.1 c2.7,0.7,6,3,6,7.2c0,2.5-1,4.4-2.4,5.8c-2,1.8-5.3,2.7-10,2.7c-2.6,0-4.5-0.2-5.8-0.3V22.7z M141.2,34.6h3.4c3.9,0,6.3-2.1,6.3-4.8 c0-3.4-2.6-4.7-6.3-4.7c-1.7,0-2.7,0.1-3.3,0.3V34.6z M141.2,48.4c0.7,0.1,1.8,0.2,3.1,0.2c3.9,0,7.4-1.4,7.4-5.6 c0-3.9-3.4-5.6-7.5-5.6h-3.1V48.4z"/> <path class="st1" d="M177.9,45.6c0,2.1,0,4,0.2,5.7h-3.3l-0.2-3.4h-0.1c-1,1.7-3.2,3.9-6.9,3.9c-3.3,0-7.2-1.8-7.2-9.1V30.5h3.8V42 c0,3.9,1.2,6.6,4.6,6.6c2.5,0,4.3-1.8,5-3.4c0.2-0.6,0.3-1.2,0.3-1.9V30.5h3.8V45.6z"/> <path class="st1" d="M183.7,47.4c1.1,0.7,3.1,1.5,5,1.5c2.7,0,4-1.4,4-3.1c0-1.8-1.1-2.8-3.9-3.8c-3.7-1.3-5.5-3.4-5.5-5.9 c0-3.3,2.7-6.1,7.2-6.1c2.1,0,3.9,0.6,5.1,1.3l-0.9,2.7c-0.8-0.5-2.3-1.2-4.2-1.2c-2.2,0-3.5,1.3-3.5,2.8c0,1.7,1.2,2.5,3.9,3.5 c3.6,1.4,5.4,3.2,5.4,6.3c0,3.6-2.8,6.2-7.8,6.2c-2.3,0-4.4-0.6-5.8-1.4L183.7,47.4z"/> <path class="st0" d="M50.2,10.7c-0.7-0.5-3.1-1.3-4.6-1.7c-0.4-1.4-0.7-2.3-0.9-2.8C43.4,3,43,2.6,39.6,1.9 c-3.1-0.6-7.7-0.7-12.4-0.6c-4.7-0.1-9.3,0-12.4,0.6c-3.4,0.6-3.8,1-5.1,4.3C9.6,6.7,9.3,7.7,8.9,9c-1.5,0.4-4.1,1.2-4.8,1.8 c-1,0.8-5,7.7-3.8,9.5c1.2,1.9,2.5,2.8,3.7,1.9c1.1-0.9,2.2-9.4,2.2-9.4c0.7,0,1.3,0,1.9,0.1c-1.5,7.3-3,19.7-0.6,34.6 c0.2,1.6,1.3,2.6,3.1,3.3c0,0.1,0,0.3,0,0.4v3.4c0,2,1.6,3.6,3.6,3.6c2,0,3.6-1.6,3.6-3.6v-2.9c2.5,0,6,0,9.7,0c3.5,0,6.9,0,9.3,0 v2.9c0,2,1.6,3.6,3.6,3.6c2,0,3.6-1.6,3.6-3.6v-3.4c0-0.1,0-0.2,0-0.3c2-0.7,3.1-1.8,3.4-3.4c2.4-14.8,0.9-27.3-0.6-34.6 c0.5,0,1,0,1.6-0.1c0,0,1.1,8.5,2.2,9.4c1.2,0.8,2.5-0.1,3.7-1.9C55.2,18.4,51.2,11.5,50.2,10.7 M22.1,4h10.9C34.1,4,34,4.6,34,5.4 c0,0.8,0.1,1.4-1.1,1.4H22.1c-1.2,0-1.1-0.6-1.1-1.4C20.9,4.6,20.9,4,22.1,4 M19.1,46.9c-0.8,0.7-5.8-0.3-7.3-0.6 c-1.5-0.3-1.4-0.1-1.9-1.2c-0.5-1.2-0.3-4.3,0-4.4c0.3-0.2,0.2-0.2,1.7,0.2C15.5,42,19.9,44.9,19.1,46.9 M44.7,45 c-0.5,1.2-0.4,0.9-1.9,1.2c-1.5,0.3-6.6,1.4-7.3,0.6C34.6,44.9,39,42,43,40.8c1.5-0.5,1.4-0.4,1.7-0.2C45,40.7,45.2,43.8,44.7,45 M45.5,31c-0.7,2.2-1.8,3.5-3.8,3.8c-2,0.2-26.4,0.2-29-0.1c-2.6-0.4-3.1-1.6-3.8-3.8c-0.7-2.2,1.2-14.7,1.9-17 c0.7-2.3,1-3.1,3.8-3.8c2.8-0.7,23.2-0.5,25.2,0.1c2,0.6,3.1,1.5,3.8,3.8C44.3,16.3,46.2,28.9,45.5,31"/> <path class="st1" d="M92.4,24.8c0,1.4-1.1,2.6-2.6,2.6c-1.4,0-2.6-1.1-2.6-2.6c0-1.4,1.1-2.6,2.6-2.6C91.3,22.3,92.4,23.4,92.4,24.8 "/> </svg>
