<?xml version="1.0" encoding="utf-8"?> <!DOCTYPE svg PUBLIC "-//W3C//DTD SVG 1.1//EN" "http://www.w3.org/Graphics/SVG/1.1/DTD/svg11.dtd"> <svg version="1.1" id="Layer_1" xmlns="http://www.w3.org/2000/svg" xmlns:xlink="http://www.w3.org/1999/xlink" x="0px" y="0px" width="182.9px" height="59.1px" viewBox="0 0 182.9 59.1" style="enable-background:new 0 0 182.9 59.1;" xml:space="preserve"> <style type="text/css"> .st0{fill:#474747;} .st1{fill:#F1D675;} </style> <path class="st0" d="M55.6,21.9h3.9v14.7h0.1c0.8-1.2,1.6-2.3,2.4-3.2l9.2-11.4h4.8L65,34.8l11.7,17.5h-4.6l-9.9-14.9l-2.8,3.3v11.6 h-3.9V21.9z"/> <rect x="80" y="20.3" class="st0" width="3.9" height="32"/> <path class="st0" d="M94.8,24.3c0,1.4-0.9,2.4-2.5,2.4c-1.4,0-2.4-1.1-2.4-2.4c0-1.4,1-2.5,2.4-2.5C93.9,21.9,94.8,22.9,94.8,24.3 M90.5,30.5h3.9v21.8h-3.9V30.5z"/> <path class="st0" d="M104.7,40.5L104.7,40.5c0.6-0.8,1.4-1.7,2-2.5l6.3-7.5h4.7l-8.3,9l9.5,12.9h-4.8l-7.4-10.5l-2,2.3v8.2h-3.9v-32 h3.9V40.5z"/> <path class="st1" d="M121.9,22.3c1.7-0.4,4.4-0.6,7.1-0.6c3.9,0,6.4,0.7,8.2,2.2c1.6,1.2,2.5,3,2.5,5.4c0,2.9-1.9,5.5-5.1,6.7V36 c2.8,0.7,6.2,3.1,6.2,7.6c0,2.6-1,4.6-2.5,6.1c-2.1,1.9-5.5,2.8-10.4,2.8c-2.7,0-4.7-0.2-6-0.4V22.3z M125.7,34.8h3.5 c4.1,0,6.5-2.2,6.5-5.1c0-3.6-2.7-5-6.6-5c-1.8,0-2.8,0.1-3.4,0.3V34.8z M125.7,49.3c0.8,0.1,1.9,0.2,3.2,0.2c4,0,7.7-1.5,7.7-5.9 c0-4.2-3.5-5.9-7.7-5.9h-3.2V49.3z"/> <path class="st1" d="M163.9,46.4c0,2.3,0,4.2,0.2,6h-3.5l-0.2-3.6h-0.1c-1,1.8-3.3,4.1-7.1,4.1c-3.4,0-7.4-1.9-7.4-9.6V30.5h3.9 v12.1c0,4.2,1.2,7,4.8,7c2.6,0,4.4-1.9,5.2-3.6c0.2-0.6,0.4-1.3,0.4-2V30.5h3.9V46.4z"/> <path class="st1" d="M169.8,48.3c1.2,0.8,3.2,1.6,5.2,1.6c2.8,0,4.2-1.4,4.2-3.2c0-1.9-1.1-2.9-4-4c-3.9-1.4-5.7-3.6-5.7-6.2 c0-3.5,2.8-6.4,7.4-6.4c2.2,0,4.1,0.6,5.3,1.4l-1,2.9c-0.8-0.5-2.4-1.3-4.4-1.3c-2.3,0-3.6,1.4-3.6,3c0,1.8,1.3,2.6,4.1,3.7 c3.7,1.4,5.6,3.3,5.6,6.6c0,3.8-2.9,6.5-8,6.5c-2.4,0-4.5-0.6-6-1.5L169.8,48.3z"/> <path class="st0" d="M51.4,9.8c-0.7-0.5-3.2-1.3-4.7-1.8c-0.4-1.4-0.7-2.4-0.9-2.9c-1.3-3.4-1.8-3.9-5.2-4.5C37.4,0,32.7-0.1,27.9,0 c-4.8-0.1-9.5,0-12.7,0.6c-3.4,0.7-3.9,1.1-5.2,4.5C9.8,5.6,9.5,6.6,9.1,7.9c-1.5,0.4-4.2,1.2-5,1.8c-1,0.8-5.2,8-3.9,9.9 c1.2,2,2.6,2.9,3.8,2c1.1-1,2.3-9.8,2.3-9.8c0.7,0,1.4,0,1.9,0.1c-1.5,7.5-3,20.5-0.6,35.9c0.3,1.6,1.3,2.7,3.1,3.5 c0,0.1,0,0.3,0,0.4v3.5c0,2,1.6,3.7,3.7,3.7c2,0,3.7-1.7,3.7-3.7v-3c2.6,0,6.1,0,9.9,0c3.6,0,7,0,9.5,0v3c0,2,1.6,3.7,3.7,3.7 c2,0,3.7-1.7,3.7-3.7v-3.5c0-0.1,0-0.2,0-0.3c2-0.7,3.2-1.9,3.5-3.6c2.4-15.4,0.9-28.3-0.6-35.9c0.5,0,1.1,0,1.7-0.1 c0,0,1.2,8.8,2.3,9.8c1.2,0.9,2.6-0.1,3.8-2C56.5,17.7,52.4,10.6,51.4,9.8 M22.6,2.7h11.1c1.2,0,1.1,0.7,1.1,1.5 c0,0.8,0.1,1.5-1.1,1.5H22.6c-1.2,0-1.2-0.7-1.2-1.5C21.4,3.4,21.4,2.7,22.6,2.7 M19.6,47.3c-0.8,0.8-6-0.4-7.5-0.7 c-1.6-0.3-1.4-0.1-2-1.3c-0.5-1.2-0.3-4.4,0-4.6c0.3-0.2,0.3-0.2,1.7,0.2C15.8,42.2,20.3,45.2,19.6,47.3 M45.7,45.3 c-0.5,1.2-0.4,1-2,1.3c-1.6,0.3-6.7,1.4-7.5,0.7c-0.8-2,3.7-5,7.8-6.3c1.5-0.5,1.4-0.4,1.7-0.2C46,40.9,46.2,44.1,45.7,45.3 M46.5,30.8c-0.7,2.2-1.8,3.7-3.9,3.9C40.6,35,15.7,35,13,34.6c-2.7-0.4-3.2-1.7-3.9-3.9C8.4,28.5,10.3,15.4,11,13 c0.7-2.4,1-3.2,3.9-3.9c2.9-0.7,23.8-0.5,25.8,0.1c2.1,0.6,3.1,1.5,3.9,3.9C45.3,15.5,47.2,28.6,46.5,30.8"/> <path class="st1" d="M95,24.4c0,1.5-1.2,2.7-2.6,2.7c-1.4,0-2.6-1.2-2.6-2.7c0-1.5,1.2-2.7,2.6-2.7C93.9,21.7,95,22.9,95,24.4"/> </svg>
