<?xml version="1.0" encoding="utf-8"?> <!DOCTYPE svg PUBLIC "-//W3C//DTD SVG 1.1//EN" "http://www.w3.org/Graphics/SVG/1.1/DTD/svg11.dtd"> <svg version="1.1" id="Layer_1" xmlns="http://www.w3.org/2000/svg" xmlns:xlink="http://www.w3.org/1999/xlink" x="0px" y="0px" width="200.7px" height="59.1px" viewBox="0 0 200.7 59.1" style="enable-background:new 0 0 200.7 59.1;" xml:space="preserve"> <style type="text/css"> .st0{fill:#474747;} .st1{fill:#F1D675;} </style> <polygon class="st0" points="65.7,25.2 56.5,25.2 56.5,21.8 78.9,21.8 78.9,25.2 69.6,25.2 69.6,52.2 65.7,52.2 "/> <path class="st0" d="M86,24.3c0,1.4-0.9,2.4-2.5,2.4c-1.4,0-2.4-1.1-2.4-2.4c0-1.4,1-2.5,2.5-2.5C85.1,21.8,86,22.9,86,24.3 M81.6,30.4h4v21.8h-4V30.4z"/> <path class="st0" d="M96.1,40.4L96.1,40.4c0.6-0.8,1.4-1.7,2-2.5l6.4-7.5h4.8l-8.4,9l9.6,12.8h-4.8l-7.5-10.4l-2,2.2v8.2h-3.9v-32 h3.9V40.4z"/> <path class="st0" d="M133,41.1c0,8.1-5.6,11.6-10.8,11.6c-5.9,0-10.4-4.3-10.4-11.2c0-7.3,4.8-11.6,10.8-11.6 C128.7,29.9,133,34.4,133,41.1 M115.7,41.3c0,4.8,2.7,8.4,6.6,8.4c3.8,0,6.6-3.6,6.6-8.5c0-3.7-1.8-8.4-6.5-8.4 C117.7,32.9,115.7,37.2,115.7,41.3"/> <path class="st1" d="M138.1,22.2c1.7-0.4,4.4-0.6,7.2-0.6c3.9,0,6.4,0.7,8.3,2.2c1.6,1.2,2.5,3,2.5,5.4c0,2.9-1.9,5.5-5.1,6.7v0.1 c2.9,0.7,6.3,3.1,6.3,7.6c0,2.6-1,4.6-2.6,6.1c-2.1,1.9-5.5,2.8-10.5,2.8c-2.7,0-4.8-0.2-6.1-0.4V22.2z M142,34.7h3.6 c4.1,0,6.6-2.2,6.6-5.1c0-3.6-2.7-4.9-6.7-4.9c-1.8,0-2.8,0.1-3.5,0.3V34.7z M142,49.2c0.8,0.1,1.9,0.2,3.3,0.2c4,0,7.8-1.5,7.8-5.9 c0-4.1-3.6-5.8-7.8-5.8H142V49.2z"/> <path class="st1" d="M180.6,46.2c0,2.2,0,4.2,0.2,5.9h-3.5l-0.2-3.6h-0.1c-1,1.8-3.3,4-7.2,4c-3.4,0-7.5-1.9-7.5-9.5V30.4h4v12.1 c0,4.1,1.3,6.9,4.9,6.9c2.7,0,4.5-1.8,5.2-3.6c0.2-0.6,0.4-1.3,0.4-2V30.4h4V46.2z"/> <path class="st1" d="M186.6,48.1c1.2,0.8,3.2,1.6,5.2,1.6c2.9,0,4.2-1.4,4.2-3.2c0-1.9-1.1-2.9-4-4c-3.9-1.4-5.8-3.6-5.8-6.2 c0-3.5,2.8-6.4,7.5-6.4c2.2,0,4.1,0.6,5.4,1.3l-1,2.9c-0.9-0.5-2.4-1.3-4.5-1.3c-2.3,0-3.6,1.4-3.6,3c0,1.8,1.3,2.6,4.1,3.7 c3.8,1.4,5.7,3.3,5.7,6.6c0,3.8-3,6.5-8.1,6.5c-2.4,0-4.6-0.6-6.1-1.5L186.6,48.1z"/> <path class="st0" d="M52.2,9.8C51.5,9.2,49,8.5,47.4,8c-0.4-1.4-0.7-2.4-0.9-2.9c-1.4-3.4-1.8-3.9-5.3-4.5C38,0,33.2-0.1,28.3,0 c-4.9-0.1-9.7,0-12.9,0.6c-3.5,0.7-3.9,1.1-5.3,4.5C9.9,5.6,9.6,6.6,9.3,8C7.7,8.4,5,9.2,4.2,9.8c-1,0.8-5.2,8-4,9.9 c1.2,2,2.6,2.9,3.8,2c1.1-1,2.3-9.8,2.3-9.8c0.7,0,1.4,0,1.9,0.1c-1.6,7.6-3.1,20.5-0.6,35.9c0.3,1.6,1.3,2.7,3.2,3.5 c0,0.1,0,0.3,0,0.4v3.5c0,2,1.7,3.7,3.7,3.7c2.1,0,3.7-1.7,3.7-3.7v-3c2.6,0,6.2,0,10.1,0c3.6,0,7.1,0,9.7,0v3c0,2,1.7,3.7,3.7,3.7 c2.1,0,3.7-1.7,3.7-3.7v-3.5c0-0.1,0-0.2,0-0.3c2-0.7,3.2-1.9,3.5-3.6c2.4-15.4,0.9-28.4-0.7-35.9c0.5,0,1.1,0,1.7-0.1 c0,0,1.2,8.8,2.3,9.8c1.2,0.9,2.6-0.1,3.8-2C57.4,17.8,53.2,10.6,52.2,9.8 M22.9,2.7h11.3c1.2,0,1.1,0.7,1.1,1.5 c0,0.8,0.1,1.5-1.1,1.5H22.9c-1.2,0-1.2-0.7-1.2-1.5C21.8,3.4,21.7,2.7,22.9,2.7 M19.9,47.3c-0.8,0.8-6.1-0.4-7.6-0.7 c-1.6-0.3-1.5-0.1-2-1.3c-0.5-1.2-0.3-4.5,0-4.6c0.3-0.2,0.3-0.2,1.8,0.2C16.1,42.3,20.6,45.3,19.9,47.3 M46.4,45.4 c-0.5,1.2-0.4,1-2,1.3c-1.6,0.3-6.8,1.4-7.6,0.7c-0.8-2,3.8-5,7.9-6.3c1.5-0.5,1.4-0.4,1.8-0.2C46.8,40.9,47,44.2,46.4,45.4 M47.3,30.9c-0.7,2.2-1.8,3.7-3.9,3.9C41.3,35,15.9,35,13.2,34.7c-2.7-0.4-3.2-1.7-3.9-3.9c-0.7-2.2,1.2-15.3,2-17.7 c0.7-2.4,1-3.2,3.9-3.9c2.9-0.7,24.1-0.5,26.2,0.1c2.1,0.6,3.2,1.5,3.9,3.9C46.1,15.5,48,28.6,47.3,30.9"/> <path class="st1" d="M86.2,24.5c0,1.5-1.2,2.7-2.7,2.7c-1.5,0-2.7-1.2-2.7-2.7c0-1.5,1.2-2.7,2.7-2.7C85,21.8,86.2,23,86.2,24.5"/> <path class="st1" d="M168.7,25.6c0,0.9-0.8,1.7-1.7,1.7c-0.9,0-1.7-0.8-1.7-1.7c0-0.9,0.8-1.7,1.7-1.7 C167.9,23.9,168.7,24.7,168.7,25.6"/> <path class="st1" d="M178,25.6c0,0.9-0.8,1.7-1.7,1.7c-0.9,0-1.7-0.8-1.7-1.7c0-0.9,0.8-1.7,1.7-1.7C177.3,23.9,178,24.7,178,25.6"/> </svg>
